<mxfile host="app.diagrams.net" modified="2020-11-19T06:32:22.331Z" agent="5.0 (Windows NT 10.0; Win64; x64) AppleWebKit/537.36 (KHTML, like Gecko) Chrome/87.0.4280.66 Safari/537.36" etag="5AbRtOs5Lh4Oh3M40T0k" version="13.10.0" type="github">
  <diagram id="C5RBs43oDa-KdzZeNtuy" name="Page-1">
    <mxGraphModel dx="981" dy="548" grid="1" gridSize="10" guides="1" tooltips="1" connect="1" arrows="1" fold="1" page="1" pageScale="1" pageWidth="827" pageHeight="1169" math="0" shadow="0">
      <root>
        <mxCell id="WIyWlLk6GJQsqaUBKTNV-0" />
        <mxCell id="WIyWlLk6GJQsqaUBKTNV-1" parent="WIyWlLk6GJQsqaUBKTNV-0" />
        <mxCell id="WQ-BB8RawupvZ2W_KCgM-4" style="edgeStyle=orthogonalEdgeStyle;rounded=0;orthogonalLoop=1;jettySize=auto;html=1;exitX=1;exitY=0.5;exitDx=0;exitDy=0;entryX=0;entryY=0.5;entryDx=0;entryDy=0;" edge="1" parent="WIyWlLk6GJQsqaUBKTNV-1" source="WQ-BB8RawupvZ2W_KCgM-0" target="WQ-BB8RawupvZ2W_KCgM-1">
          <mxGeometry relative="1" as="geometry" />
        </mxCell>
        <mxCell id="WQ-BB8RawupvZ2W_KCgM-0" value="数据" style="rounded=1;whiteSpace=wrap;html=1;" vertex="1" parent="WIyWlLk6GJQsqaUBKTNV-1">
          <mxGeometry x="190" y="160" width="100" height="30" as="geometry" />
        </mxCell>
        <mxCell id="WQ-BB8RawupvZ2W_KCgM-5" style="edgeStyle=orthogonalEdgeStyle;rounded=0;orthogonalLoop=1;jettySize=auto;html=1;exitX=0;exitY=0.5;exitDx=0;exitDy=0;entryX=1;entryY=0.5;entryDx=0;entryDy=0;" edge="1" parent="WIyWlLk6GJQsqaUBKTNV-1" source="WQ-BB8RawupvZ2W_KCgM-1" target="WQ-BB8RawupvZ2W_KCgM-0">
          <mxGeometry relative="1" as="geometry" />
        </mxCell>
        <mxCell id="WQ-BB8RawupvZ2W_KCgM-6" style="edgeStyle=orthogonalEdgeStyle;rounded=0;orthogonalLoop=1;jettySize=auto;html=1;exitX=1;exitY=0.5;exitDx=0;exitDy=0;" edge="1" parent="WIyWlLk6GJQsqaUBKTNV-1" source="WQ-BB8RawupvZ2W_KCgM-1" target="WQ-BB8RawupvZ2W_KCgM-2">
          <mxGeometry relative="1" as="geometry" />
        </mxCell>
        <mxCell id="WQ-BB8RawupvZ2W_KCgM-1" value="数据操作" style="rounded=1;whiteSpace=wrap;html=1;" vertex="1" parent="WIyWlLk6GJQsqaUBKTNV-1">
          <mxGeometry x="340" y="160" width="100" height="30" as="geometry" />
        </mxCell>
        <mxCell id="WQ-BB8RawupvZ2W_KCgM-7" style="edgeStyle=orthogonalEdgeStyle;rounded=0;orthogonalLoop=1;jettySize=auto;html=1;exitX=0;exitY=0.5;exitDx=0;exitDy=0;" edge="1" parent="WIyWlLk6GJQsqaUBKTNV-1" source="WQ-BB8RawupvZ2W_KCgM-2">
          <mxGeometry relative="1" as="geometry">
            <mxPoint x="440" y="174.75862068965523" as="targetPoint" />
          </mxGeometry>
        </mxCell>
        <mxCell id="WQ-BB8RawupvZ2W_KCgM-2" value="界面显示" style="rounded=1;whiteSpace=wrap;html=1;" vertex="1" parent="WIyWlLk6GJQsqaUBKTNV-1">
          <mxGeometry x="500" y="160" width="100" height="30" as="geometry" />
        </mxCell>
        <mxCell id="WQ-BB8RawupvZ2W_KCgM-8" value="Meta1" style="rounded=0;whiteSpace=wrap;html=1;" vertex="1" parent="WIyWlLk6GJQsqaUBKTNV-1">
          <mxGeometry x="90" y="240" width="50" height="30" as="geometry" />
        </mxCell>
        <mxCell id="WQ-BB8RawupvZ2W_KCgM-10" value="" style="endArrow=classic;html=1;exitX=0.5;exitY=1;exitDx=0;exitDy=0;entryX=0.5;entryY=0;entryDx=0;entryDy=0;" edge="1" parent="WIyWlLk6GJQsqaUBKTNV-1" source="WQ-BB8RawupvZ2W_KCgM-0" target="WQ-BB8RawupvZ2W_KCgM-8">
          <mxGeometry width="50" height="50" relative="1" as="geometry">
            <mxPoint x="380" y="320" as="sourcePoint" />
            <mxPoint x="430" y="270" as="targetPoint" />
          </mxGeometry>
        </mxCell>
        <mxCell id="WQ-BB8RawupvZ2W_KCgM-11" value="Meta2" style="rounded=0;whiteSpace=wrap;html=1;" vertex="1" parent="WIyWlLk6GJQsqaUBKTNV-1">
          <mxGeometry x="170" y="240" width="50" height="30" as="geometry" />
        </mxCell>
        <mxCell id="WQ-BB8RawupvZ2W_KCgM-13" value="" style="endArrow=classic;html=1;exitX=0.5;exitY=1;exitDx=0;exitDy=0;entryX=0.5;entryY=0;entryDx=0;entryDy=0;" edge="1" parent="WIyWlLk6GJQsqaUBKTNV-1" source="WQ-BB8RawupvZ2W_KCgM-0" target="WQ-BB8RawupvZ2W_KCgM-11">
          <mxGeometry width="50" height="50" relative="1" as="geometry">
            <mxPoint x="200" y="350" as="sourcePoint" />
            <mxPoint x="250" y="300" as="targetPoint" />
          </mxGeometry>
        </mxCell>
      </root>
    </mxGraphModel>
  </diagram>
</mxfile>
